<?xml version="1.0" encoding="UTF-8" standalone="no"?>
<!DOCTYPE svg PUBLIC "-//W3C//DTD SVG 1.1//EN"
 "http://www.w3.org/Graphics/SVG/1.1/DTD/svg11.dtd">
<!-- Generated by graphviz version 2.43.0 (0)
 -->
<!-- Title: Fluxograma Pages: 1 -->
<svg width="1841pt" height="298pt"
 viewBox="0.00 0.00 1841.00 298.00" xmlns="http://www.w3.org/2000/svg" xmlns:xlink="http://www.w3.org/1999/xlink">
<g id="graph0" class="graph" transform="scale(1 1) rotate(0) translate(4 294)">
<title>Fluxograma</title>
<polygon fill="white" stroke="transparent" points="-4,4 -4,-294 1837,-294 1837,4 -4,4"/>
<g id="clust1" class="cluster">
<title>cluster_colestase</title>
<polygon fill="lightgrey" stroke="lightgrey" points="640,-153 640,-282 1825,-282 1825,-153 640,-153"/>
<text text-anchor="middle" x="1232.5" y="-266.8" font-family="Times,serif" font-size="14.00">Colestase Hepática</text>
</g>
<!-- Hepatocito -->
<g id="node1" class="node">
<title>Hepatocito</title>
<path fill="none" stroke="black" d="M79,-113C79,-113 12,-113 12,-113 6,-113 0,-107 0,-101 0,-101 0,-89 0,-89 0,-83 6,-77 12,-77 12,-77 79,-77 79,-77 85,-77 91,-83 91,-89 91,-89 91,-101 91,-101 91,-107 85,-113 79,-113"/>
<text text-anchor="middle" x="45.5" y="-91.3" font-family="Helvetica,sans-Serif" font-size="14.00">Hepatocito</text>
</g>
<!-- Colesterol -->
<g id="node2" class="node">
<title>Colesterol</title>
<path fill="none" stroke="black" d="M407,-113C407,-113 346,-113 346,-113 340,-113 334,-107 334,-101 334,-101 334,-89 334,-89 334,-83 340,-77 346,-77 346,-77 407,-77 407,-77 413,-77 419,-83 419,-89 419,-89 419,-101 419,-101 419,-107 413,-113 407,-113"/>
<text text-anchor="middle" x="376.5" y="-91.3" font-family="Helvetica,sans-Serif" font-size="14.00">Colesterol</text>
</g>
<!-- Hepatocito&#45;&gt;Colesterol -->
<g id="edge1" class="edge">
<title>Hepatocito&#45;&gt;Colesterol</title>
<path fill="none" stroke="black" d="M91.21,-95C151.71,-95 259.41,-95 323.47,-95"/>
<polygon fill="black" stroke="black" points="323.74,-98.5 333.74,-95 323.74,-91.5 323.74,-98.5"/>
<text text-anchor="middle" x="212.5" y="-98.8" font-family="Times,serif" font-size="14.00">Síntese (HMG&#45;CoA redutase)</text>
</g>
<!-- VLDL -->
<g id="node3" class="node">
<title>VLDL</title>
<path fill="none" stroke="black" d="M707.5,-144C707.5,-144 677.5,-144 677.5,-144 671.5,-144 665.5,-138 665.5,-132 665.5,-132 665.5,-120 665.5,-120 665.5,-114 671.5,-108 677.5,-108 677.5,-108 707.5,-108 707.5,-108 713.5,-108 719.5,-114 719.5,-120 719.5,-120 719.5,-132 719.5,-132 719.5,-138 713.5,-144 707.5,-144"/>
<text text-anchor="middle" x="692.5" y="-122.3" font-family="Helvetica,sans-Serif" font-size="14.00">VLDL</text>
</g>
<!-- Colesterol&#45;&gt;VLDL -->
<g id="edge2" class="edge">
<title>Colesterol&#45;&gt;VLDL</title>
<path fill="none" stroke="black" d="M419.2,-99.12C481.07,-105.23 596.21,-116.59 654.96,-122.39"/>
<polygon fill="black" stroke="black" points="654.95,-125.91 665.25,-123.41 655.64,-118.94 654.95,-125.91"/>
<text text-anchor="middle" x="533.5" y="-123.8" font-family="Times,serif" font-size="14.00">Transporte</text>
</g>
<!-- BA -->
<g id="node4" class="node">
<title>BA</title>
<path fill="none" stroke="black" d="M707.5,-90C707.5,-90 677.5,-90 677.5,-90 671.5,-90 665.5,-84 665.5,-78 665.5,-78 665.5,-66 665.5,-66 665.5,-60 671.5,-54 677.5,-54 677.5,-54 707.5,-54 707.5,-54 713.5,-54 719.5,-60 719.5,-66 719.5,-66 719.5,-78 719.5,-78 719.5,-84 713.5,-90 707.5,-90"/>
<text text-anchor="middle" x="692.5" y="-68.3" font-family="Helvetica,sans-Serif" font-size="14.00">BA</text>
</g>
<!-- Colesterol&#45;&gt;BA -->
<g id="edge3" class="edge">
<title>Colesterol&#45;&gt;BA</title>
<path fill="none" stroke="black" d="M419.03,-87.39C425.04,-86.47 431.17,-85.64 437,-85 514.44,-76.54 605.75,-73.57 655.22,-72.54"/>
<polygon fill="black" stroke="black" points="655.48,-76.03 665.41,-72.34 655.34,-69.03 655.48,-76.03"/>
<text text-anchor="middle" x="533.5" y="-88.8" font-family="Times,serif" font-size="14.00">Ác. Biliares (CYP7A1)</text>
</g>
<!-- Bile -->
<g id="node5" class="node">
<title>Bile</title>
<path fill="none" stroke="black" d="M707.5,-36C707.5,-36 677.5,-36 677.5,-36 671.5,-36 665.5,-30 665.5,-24 665.5,-24 665.5,-12 665.5,-12 665.5,-6 671.5,0 677.5,0 677.5,0 707.5,0 707.5,0 713.5,0 719.5,-6 719.5,-12 719.5,-12 719.5,-24 719.5,-24 719.5,-30 713.5,-36 707.5,-36"/>
<text text-anchor="middle" x="692.5" y="-14.3" font-family="Helvetica,sans-Serif" font-size="14.00">Bile</text>
</g>
<!-- Colesterol&#45;&gt;Bile -->
<g id="edge4" class="edge">
<title>Colesterol&#45;&gt;Bile</title>
<path fill="none" stroke="black" d="M399.33,-76.86C410.05,-68.9 423.53,-60.2 437,-55 510.89,-26.5 604.57,-19.73 655.14,-18.26"/>
<polygon fill="black" stroke="black" points="655.34,-21.76 665.26,-18.02 655.18,-14.76 655.34,-21.76"/>
<text text-anchor="middle" x="533.5" y="-58.8" font-family="Times,serif" font-size="14.00">Excreção direta (ABCG5/8)</text>
</g>
<!-- Obstrucao -->
<g id="node9" class="node">
<title>Obstrucao</title>
<path fill="none" stroke="black" d="M725,-198C725,-198 660,-198 660,-198 654,-198 648,-192 648,-186 648,-186 648,-174 648,-174 648,-168 654,-162 660,-162 660,-162 725,-162 725,-162 731,-162 737,-168 737,-174 737,-174 737,-186 737,-186 737,-192 731,-198 725,-198"/>
<text text-anchor="middle" x="692.5" y="-176.3" font-family="Helvetica,sans-Serif" font-size="14.00">Obstrucao</text>
</g>
<!-- Colesterol&#45;&gt;Obstrucao -->
<g id="edge14" class="edge">
<title>Colesterol&#45;&gt;Obstrucao</title>
<path fill="none" stroke="black" stroke-dasharray="5,2" d="M396.93,-113.1C407.9,-122.31 422.32,-132.82 437,-139 502.55,-166.58 584.78,-175.72 637.73,-178.68"/>
<polygon fill="black" stroke="black" points="637.75,-182.19 647.92,-179.2 638.1,-175.2 637.75,-182.19"/>
</g>
<!-- Clearance -->
<g id="node6" class="node">
<title>Clearance</title>
<path fill="none" stroke="black" d="M979,-144C979,-144 917,-144 917,-144 911,-144 905,-138 905,-132 905,-132 905,-120 905,-120 905,-114 911,-108 917,-108 917,-108 979,-108 979,-108 985,-108 991,-114 991,-120 991,-120 991,-132 991,-132 991,-138 985,-144 979,-144"/>
<text text-anchor="middle" x="948" y="-122.3" font-family="Helvetica,sans-Serif" font-size="14.00">Clearance</text>
</g>
<!-- VLDL&#45;&gt;Clearance -->
<g id="edge5" class="edge">
<title>VLDL&#45;&gt;Clearance</title>
<path fill="none" stroke="black" d="M719.67,-126C760.71,-126 840.99,-126 894.32,-126"/>
<polygon fill="black" stroke="black" points="894.61,-129.5 904.61,-126 894.61,-122.5 894.61,-129.5"/>
<text text-anchor="middle" x="808" y="-129.8" font-family="Times,serif" font-size="14.00">LDLR hepático</text>
</g>
<!-- Intestino -->
<g id="node7" class="node">
<title>Intestino</title>
<path fill="none" stroke="black" d="M974.5,-90C974.5,-90 921.5,-90 921.5,-90 915.5,-90 909.5,-84 909.5,-78 909.5,-78 909.5,-66 909.5,-66 909.5,-60 915.5,-54 921.5,-54 921.5,-54 974.5,-54 974.5,-54 980.5,-54 986.5,-60 986.5,-66 986.5,-66 986.5,-78 986.5,-78 986.5,-84 980.5,-90 974.5,-90"/>
<text text-anchor="middle" x="948" y="-68.3" font-family="Helvetica,sans-Serif" font-size="14.00">Intestino</text>
</g>
<!-- BA&#45;&gt;Intestino -->
<g id="edge6" class="edge">
<title>BA&#45;&gt;Intestino</title>
<path fill="none" stroke="black" d="M719.67,-72C761.89,-72 845.67,-72 898.88,-72"/>
<polygon fill="black" stroke="black" points="899.09,-75.5 909.09,-72 899.09,-68.5 899.09,-75.5"/>
<text text-anchor="middle" x="808" y="-75.8" font-family="Times,serif" font-size="14.00">Secreção</text>
</g>
<!-- Fezes -->
<g id="node8" class="node">
<title>Fezes</title>
<path fill="none" stroke="black" d="M964,-36C964,-36 932,-36 932,-36 926,-36 920,-30 920,-24 920,-24 920,-12 920,-12 920,-6 926,0 932,0 932,0 964,0 964,0 970,0 976,-6 976,-12 976,-12 976,-24 976,-24 976,-30 970,-36 964,-36"/>
<text text-anchor="middle" x="948" y="-14.3" font-family="Helvetica,sans-Serif" font-size="14.00">Fezes</text>
</g>
<!-- Bile&#45;&gt;Fezes -->
<g id="edge7" class="edge">
<title>Bile&#45;&gt;Fezes</title>
<path fill="none" stroke="black" d="M719.67,-18C764.88,-18 857.74,-18 909.69,-18"/>
<polygon fill="black" stroke="black" points="909.82,-21.5 919.82,-18 909.82,-14.5 909.82,-21.5"/>
<text text-anchor="middle" x="808" y="-21.8" font-family="Times,serif" font-size="14.00">Excreção fecal</text>
</g>
<!-- ReducaoExcrecao -->
<g id="node10" class="node">
<title>ReducaoExcrecao</title>
<path fill="none" stroke="black" d="M1005,-198C1005,-198 891,-198 891,-198 885,-198 879,-192 879,-186 879,-186 879,-174 879,-174 879,-168 885,-162 891,-162 891,-162 1005,-162 1005,-162 1011,-162 1017,-168 1017,-174 1017,-174 1017,-186 1017,-186 1017,-192 1011,-198 1005,-198"/>
<text text-anchor="middle" x="948" y="-176.3" font-family="Helvetica,sans-Serif" font-size="14.00">ReducaoExcrecao</text>
</g>
<!-- Obstrucao&#45;&gt;ReducaoExcrecao -->
<g id="edge8" class="edge">
<title>Obstrucao&#45;&gt;ReducaoExcrecao</title>
<path fill="none" stroke="black" d="M737.08,-180C773.12,-180 825.22,-180 868.5,-180"/>
<polygon fill="black" stroke="black" points="868.73,-183.5 878.73,-180 868.73,-176.5 868.73,-183.5"/>
<text text-anchor="middle" x="808" y="-183.8" font-family="Times,serif" font-size="14.00">↓ Bile</text>
</g>
<!-- Acumulo -->
<g id="node11" class="node">
<title>Acumulo</title>
<path fill="none" stroke="black" d="M1273,-198C1273,-198 1220,-198 1220,-198 1214,-198 1208,-192 1208,-186 1208,-186 1208,-174 1208,-174 1208,-168 1214,-162 1220,-162 1220,-162 1273,-162 1273,-162 1279,-162 1285,-168 1285,-174 1285,-174 1285,-186 1285,-186 1285,-192 1279,-198 1273,-198"/>
<text text-anchor="middle" x="1246.5" y="-176.3" font-family="Helvetica,sans-Serif" font-size="14.00">Acumulo</text>
</g>
<!-- ReducaoExcrecao&#45;&gt;Acumulo -->
<g id="edge9" class="edge">
<title>ReducaoExcrecao&#45;&gt;Acumulo</title>
<path fill="none" stroke="black" d="M1017.02,-180C1072.25,-180 1148.73,-180 1197.67,-180"/>
<polygon fill="black" stroke="black" points="1197.68,-183.5 1207.68,-180 1197.68,-176.5 1197.68,-183.5"/>
<text text-anchor="middle" x="1112.5" y="-183.8" font-family="Times,serif" font-size="14.00">↑ Colesterol hepático</text>
</g>
<!-- LpX -->
<g id="node12" class="node">
<title>LpX</title>
<path fill="none" stroke="black" d="M1537.5,-197C1537.5,-197 1507.5,-197 1507.5,-197 1501.5,-197 1495.5,-191 1495.5,-185 1495.5,-185 1495.5,-173 1495.5,-173 1495.5,-167 1501.5,-161 1507.5,-161 1507.5,-161 1537.5,-161 1537.5,-161 1543.5,-161 1549.5,-167 1549.5,-173 1549.5,-173 1549.5,-185 1549.5,-185 1549.5,-191 1543.5,-197 1537.5,-197"/>
<text text-anchor="middle" x="1522.5" y="-175.3" font-family="Helvetica,sans-Serif" font-size="14.00">LpX</text>
</g>
<!-- Acumulo&#45;&gt;LpX -->
<g id="edge10" class="edge">
<title>Acumulo&#45;&gt;LpX</title>
<path fill="none" stroke="black" d="M1285.02,-179.86C1337.81,-179.67 1433.36,-179.32 1485.38,-179.13"/>
<polygon fill="black" stroke="black" points="1485.5,-182.63 1495.48,-179.09 1485.47,-175.63 1485.5,-182.63"/>
<text text-anchor="middle" x="1383" y="-182.8" font-family="Times,serif" font-size="14.00">Formação de LpX</text>
</g>
<!-- Feedback -->
<g id="node14" class="node">
<title>Feedback</title>
<path fill="none" stroke="black" d="M1552,-251C1552,-251 1493,-251 1493,-251 1487,-251 1481,-245 1481,-239 1481,-239 1481,-227 1481,-227 1481,-221 1487,-215 1493,-215 1493,-215 1552,-215 1552,-215 1558,-215 1564,-221 1564,-227 1564,-227 1564,-239 1564,-239 1564,-245 1558,-251 1552,-251"/>
<text text-anchor="middle" x="1522.5" y="-229.3" font-family="Helvetica,sans-Serif" font-size="14.00">Feedback</text>
</g>
<!-- Acumulo&#45;&gt;Feedback -->
<g id="edge12" class="edge">
<title>Acumulo&#45;&gt;Feedback</title>
<path fill="none" stroke="black" d="M1285.19,-193.09C1291.11,-194.89 1297.19,-196.6 1303,-198 1359.83,-211.68 1426.29,-221.46 1470.86,-227.15"/>
<polygon fill="black" stroke="black" points="1470.5,-230.63 1480.86,-228.4 1471.37,-223.68 1470.5,-230.63"/>
<text text-anchor="middle" x="1383" y="-229.8" font-family="Times,serif" font-size="14.00">Feedback desregulado</text>
</g>
<!-- Hiper -->
<g id="node13" class="node">
<title>Hiper</title>
<path fill="none" stroke="black" d="M1805,-220C1805,-220 1775,-220 1775,-220 1769,-220 1763,-214 1763,-208 1763,-208 1763,-196 1763,-196 1763,-190 1769,-184 1775,-184 1775,-184 1805,-184 1805,-184 1811,-184 1817,-190 1817,-196 1817,-196 1817,-208 1817,-208 1817,-214 1811,-220 1805,-220"/>
<text text-anchor="middle" x="1790" y="-198.3" font-family="Helvetica,sans-Serif" font-size="14.00">Hiper</text>
</g>
<!-- LpX&#45;&gt;Hiper -->
<g id="edge11" class="edge">
<title>LpX&#45;&gt;Hiper</title>
<path fill="none" stroke="black" d="M1549.66,-177.82C1591.34,-176.44 1675.26,-175.72 1745,-188 1747.65,-188.47 1750.36,-189.05 1753.06,-189.71"/>
<polygon fill="black" stroke="black" points="1752.19,-193.1 1762.76,-192.39 1754.06,-186.36 1752.19,-193.1"/>
<text text-anchor="middle" x="1663.5" y="-191.8" font-family="Times,serif" font-size="14.00">Não captado por LDLR</text>
</g>
<!-- Feedback&#45;&gt;Hiper -->
<g id="edge13" class="edge">
<title>Feedback&#45;&gt;Hiper</title>
<path fill="none" stroke="black" d="M1564.11,-228.26C1615.54,-222.25 1703.37,-212 1752.67,-206.24"/>
<polygon fill="black" stroke="black" points="1753.34,-209.69 1762.87,-205.05 1752.53,-202.73 1753.34,-209.69"/>
<text text-anchor="middle" x="1663.5" y="-228.8" font-family="Times,serif" font-size="14.00">↑ Síntese</text>
</g>
</g>
</svg>
