<?xml version="1.0" encoding="UTF-8" standalone="no"?>
<!DOCTYPE svg PUBLIC "-//W3C//DTD SVG 1.1//EN"
 "http://www.w3.org/Graphics/SVG/1.1/DTD/svg11.dtd">
<!-- Generated by graphviz version 2.43.0 (0)
 -->
<!-- Title: Mindmap Pages: 1 -->
<svg width="979pt" height="489pt"
 viewBox="0.00 0.00 979.43 489.00" xmlns="http://www.w3.org/2000/svg" xmlns:xlink="http://www.w3.org/1999/xlink">
<g id="graph0" class="graph" transform="scale(1 1) rotate(0) translate(4 485)">
<title>Mindmap</title>
<polygon fill="white" stroke="transparent" points="-4,4 -4,-485 975.43,-485 975.43,4 -4,4"/>
<g id="clust1" class="cluster">
<title>cluster_0</title>
<polygon fill="none" stroke="black" points="323.43,-396 323.43,-473 720.93,-473 720.93,-396 323.43,-396"/>
<text text-anchor="middle" x="522.18" y="-457.8" font-family="Times,serif" font-size="14.00">Síntese Hepática</text>
</g>
<g id="clust2" class="cluster">
<title>cluster_1</title>
<polygon fill="none" stroke="black" points="309.43,-313 309.43,-388 917.43,-388 917.43,-313 309.43,-313"/>
<text text-anchor="middle" x="613.43" y="-372.8" font-family="Times,serif" font-size="14.00">Transporte Lipoproteico</text>
</g>
<g id="clust3" class="cluster">
<title>cluster_2</title>
<polygon fill="none" stroke="black" points="317.93,-230 317.93,-305 963.43,-305 963.43,-230 317.93,-230"/>
<text text-anchor="middle" x="640.68" y="-289.8" font-family="Times,serif" font-size="14.00">Ácidos Biliares</text>
</g>
<g id="clust4" class="cluster">
<title>cluster_3</title>
<polygon fill="none" stroke="black" points="338.93,-147 338.93,-222 695.93,-222 695.93,-147 338.93,-147"/>
<text text-anchor="middle" x="517.43" y="-206.8" font-family="Times,serif" font-size="14.00">Excreção Biliar</text>
</g>
<g id="clust5" class="cluster">
<title>cluster_4</title>
<polygon fill="none" stroke="black" points="342.93,-8 342.93,-139 930.93,-139 930.93,-8 342.93,-8"/>
<text text-anchor="middle" x="636.93" y="-123.8" font-family="Times,serif" font-size="14.00">Colestase Hepática</text>
</g>
<!-- Metabolismo -->
<g id="node1" class="node">
<title>Metabolismo</title>
<ellipse fill="lightblue" stroke="black" cx="140.71" cy="-256" rx="140.93" ry="26.74"/>
<text text-anchor="middle" x="140.71" y="-259.8" font-family="Helvetica,sans-Serif" font-size="14.00">Metabolismo do Colesterol</text>
<text text-anchor="middle" x="140.71" y="-244.8" font-family="Helvetica,sans-Serif" font-size="14.00">(Foco: Colestase)</text>
</g>
<!-- HMGCR -->
<g id="node2" class="node">
<title>HMGCR</title>
<path fill="none" stroke="black" d="M467.43,-442C467.43,-442 343.43,-442 343.43,-442 337.43,-442 331.43,-436 331.43,-430 331.43,-430 331.43,-416 331.43,-416 331.43,-410 337.43,-404 343.43,-404 343.43,-404 467.43,-404 467.43,-404 473.43,-404 479.43,-410 479.43,-416 479.43,-416 479.43,-430 479.43,-430 479.43,-436 473.43,-442 467.43,-442"/>
<text text-anchor="middle" x="405.43" y="-426.8" font-family="Helvetica,sans-Serif" font-size="14.00">Via do mevalonato</text>
<text text-anchor="middle" x="405.43" y="-411.8" font-family="Helvetica,sans-Serif" font-size="14.00">HMG&#45;CoA redutase</text>
</g>
<!-- Metabolismo&#45;&gt;HMGCR -->
<g id="edge1" class="edge">
<title>Metabolismo&#45;&gt;HMGCR</title>
<path fill="none" stroke="black" d="M167.93,-282.49C199.17,-312.73 254.11,-361.9 309.43,-392 314.83,-394.94 320.55,-397.66 326.41,-400.16"/>
<polygon fill="black" stroke="black" points="325.11,-403.41 335.7,-403.92 327.74,-396.92 325.11,-403.41"/>
</g>
<!-- Exogeno -->
<g id="node4" class="node">
<title>Exogeno</title>
<path fill="none" stroke="black" d="M481.43,-357C481.43,-357 329.43,-357 329.43,-357 323.43,-357 317.43,-351 317.43,-345 317.43,-345 317.43,-333 317.43,-333 317.43,-327 323.43,-321 329.43,-321 329.43,-321 481.43,-321 481.43,-321 487.43,-321 493.43,-327 493.43,-333 493.43,-333 493.43,-345 493.43,-345 493.43,-351 487.43,-357 481.43,-357"/>
<text text-anchor="middle" x="405.43" y="-335.3" font-family="Helvetica,sans-Serif" font-size="14.00">Exógeno: Quilomícrons</text>
</g>
<!-- Metabolismo&#45;&gt;Exogeno -->
<g id="edge2" class="edge">
<title>Metabolismo&#45;&gt;Exogeno</title>
<path fill="none" stroke="black" d="M214.36,-278.96C243.86,-288.28 278.27,-299.16 309.43,-309 318.55,-311.88 328.16,-314.92 337.63,-317.91"/>
<polygon fill="black" stroke="black" points="336.82,-321.32 347.41,-321 338.93,-314.65 336.82,-321.32"/>
</g>
<!-- Classica -->
<g id="node7" class="node">
<title>Classica</title>
<path fill="none" stroke="black" d="M472.93,-274C472.93,-274 337.93,-274 337.93,-274 331.93,-274 325.93,-268 325.93,-262 325.93,-262 325.93,-250 325.93,-250 325.93,-244 331.93,-238 337.93,-238 337.93,-238 472.93,-238 472.93,-238 478.93,-238 484.93,-244 484.93,-250 484.93,-250 484.93,-262 484.93,-262 484.93,-268 478.93,-274 472.93,-274"/>
<text text-anchor="middle" x="405.43" y="-252.3" font-family="Helvetica,sans-Serif" font-size="14.00">Via clássica: CYP7A1</text>
</g>
<!-- Metabolismo&#45;&gt;Classica -->
<g id="edge3" class="edge">
<title>Metabolismo&#45;&gt;Classica</title>
<path fill="none" stroke="black" d="M281.53,-256C293.17,-256 304.71,-256 315.8,-256"/>
<polygon fill="black" stroke="black" points="315.84,-259.5 325.84,-256 315.84,-252.5 315.84,-259.5"/>
</g>
<!-- ABCG -->
<g id="node10" class="node">
<title>ABCG</title>
<path fill="none" stroke="black" d="M451.93,-191C451.93,-191 358.93,-191 358.93,-191 352.93,-191 346.93,-185 346.93,-179 346.93,-179 346.93,-167 346.93,-167 346.93,-161 352.93,-155 358.93,-155 358.93,-155 451.93,-155 451.93,-155 457.93,-155 463.93,-161 463.93,-167 463.93,-167 463.93,-179 463.93,-179 463.93,-185 457.93,-191 451.93,-191"/>
<text text-anchor="middle" x="405.43" y="-169.3" font-family="Helvetica,sans-Serif" font-size="14.00">ABCG5/ABCG8</text>
</g>
<!-- Metabolismo&#45;&gt;ABCG -->
<g id="edge4" class="edge">
<title>Metabolismo&#45;&gt;ABCG</title>
<path fill="none" stroke="black" d="M214.55,-232.99C253.02,-220.84 299.91,-206.02 337.47,-194.15"/>
<polygon fill="black" stroke="black" points="338.82,-197.4 347.3,-191.05 336.71,-190.72 338.82,-197.4"/>
</g>
<!-- Colestase -->
<g id="node12" class="node">
<title>Colestase</title>
<path fill="none" stroke="black" d="M447.93,-107C447.93,-107 362.93,-107 362.93,-107 356.93,-107 350.93,-101 350.93,-95 350.93,-95 350.93,-83 350.93,-83 350.93,-77 356.93,-71 362.93,-71 362.93,-71 447.93,-71 447.93,-71 453.93,-71 459.93,-77 459.93,-83 459.93,-83 459.93,-95 459.93,-95 459.93,-101 453.93,-107 447.93,-107"/>
<text text-anchor="middle" x="405.43" y="-85.3" font-family="Helvetica,sans-Serif" font-size="14.00">↓ Fluxo biliar</text>
</g>
<!-- Metabolismo&#45;&gt;Colestase -->
<g id="edge5" class="edge">
<title>Metabolismo&#45;&gt;Colestase</title>
<path fill="none" stroke="black" d="M178.49,-230.04C212.12,-206.59 263.47,-171.49 309.43,-143 326.44,-132.46 345.55,-121.44 362.16,-112.12"/>
<polygon fill="black" stroke="black" points="364.07,-115.06 371.09,-107.13 360.65,-108.95 364.07,-115.06"/>
</g>
<!-- SREBP -->
<g id="node3" class="node">
<title>SREBP</title>
<path fill="none" stroke="black" d="M700.93,-441C700.93,-441 545.93,-441 545.93,-441 539.93,-441 533.93,-435 533.93,-429 533.93,-429 533.93,-417 533.93,-417 533.93,-411 539.93,-405 545.93,-405 545.93,-405 700.93,-405 700.93,-405 706.93,-405 712.93,-411 712.93,-417 712.93,-417 712.93,-429 712.93,-429 712.93,-435 706.93,-441 700.93,-441"/>
<text text-anchor="middle" x="623.43" y="-419.3" font-family="Helvetica,sans-Serif" font-size="14.00">Regulação: SREBP, LXR</text>
</g>
<!-- HMGCR&#45;&gt;SREBP -->
<g id="edge6" class="edge">
<title>HMGCR&#45;&gt;SREBP</title>
<path fill="none" stroke="black" d="M479.56,-423C493.68,-423 508.69,-423 523.47,-423"/>
<polygon fill="black" stroke="black" points="523.66,-426.5 533.66,-423 523.66,-419.5 523.66,-426.5"/>
</g>
<!-- Endogeno -->
<g id="node5" class="node">
<title>Endogeno</title>
<path fill="none" stroke="black" d="M699.93,-357C699.93,-357 546.93,-357 546.93,-357 540.93,-357 534.93,-351 534.93,-345 534.93,-345 534.93,-333 534.93,-333 534.93,-327 540.93,-321 546.93,-321 546.93,-321 699.93,-321 699.93,-321 705.93,-321 711.93,-327 711.93,-333 711.93,-333 711.93,-345 711.93,-345 711.93,-351 705.93,-357 699.93,-357"/>
<text text-anchor="middle" x="623.43" y="-335.3" font-family="Helvetica,sans-Serif" font-size="14.00">Endógeno: VLDL → LDL</text>
</g>
<!-- Exogeno&#45;&gt;Endogeno -->
<g id="edge7" class="edge">
<title>Exogeno&#45;&gt;Endogeno</title>
<path fill="none" stroke="black" d="M493.66,-339C503.85,-339 514.29,-339 524.61,-339"/>
<polygon fill="black" stroke="black" points="524.87,-342.5 534.87,-339 524.87,-335.5 524.87,-342.5"/>
</g>
<!-- Reverso -->
<g id="node6" class="node">
<title>Reverso</title>
<path fill="none" stroke="black" d="M897.43,-357C897.43,-357 811.43,-357 811.43,-357 805.43,-357 799.43,-351 799.43,-345 799.43,-345 799.43,-333 799.43,-333 799.43,-327 805.43,-321 811.43,-321 811.43,-321 897.43,-321 897.43,-321 903.43,-321 909.43,-327 909.43,-333 909.43,-333 909.43,-345 909.43,-345 909.43,-351 903.43,-357 897.43,-357"/>
<text text-anchor="middle" x="854.43" y="-335.3" font-family="Helvetica,sans-Serif" font-size="14.00">Reverso: HDL</text>
</g>
<!-- Endogeno&#45;&gt;Reverso -->
<g id="edge8" class="edge">
<title>Endogeno&#45;&gt;Reverso</title>
<path fill="none" stroke="black" d="M711.98,-339C737.73,-339 765.39,-339 789.37,-339"/>
<polygon fill="black" stroke="black" points="789.41,-342.5 799.41,-339 789.41,-335.5 789.41,-342.5"/>
</g>
<!-- Alternativa -->
<g id="node8" class="node">
<title>Alternativa</title>
<path fill="none" stroke="black" d="M705.43,-274C705.43,-274 541.43,-274 541.43,-274 535.43,-274 529.43,-268 529.43,-262 529.43,-262 529.43,-250 529.43,-250 529.43,-244 535.43,-238 541.43,-238 541.43,-238 705.43,-238 705.43,-238 711.43,-238 717.43,-244 717.43,-250 717.43,-250 717.43,-262 717.43,-262 717.43,-268 711.43,-274 705.43,-274"/>
<text text-anchor="middle" x="623.43" y="-252.3" font-family="Helvetica,sans-Serif" font-size="14.00">Via alternativa: CYP27A1</text>
</g>
<!-- Classica&#45;&gt;Alternativa -->
<g id="edge9" class="edge">
<title>Classica&#45;&gt;Alternativa</title>
<path fill="none" stroke="black" d="M485.02,-256C496.12,-256 507.67,-256 519.15,-256"/>
<polygon fill="black" stroke="black" points="519.21,-259.5 529.21,-256 519.21,-252.5 519.21,-259.5"/>
</g>
<!-- Circulacao -->
<g id="node9" class="node">
<title>Circulacao</title>
<path fill="none" stroke="black" d="M943.43,-274C943.43,-274 765.43,-274 765.43,-274 759.43,-274 753.43,-268 753.43,-262 753.43,-262 753.43,-250 753.43,-250 753.43,-244 759.43,-238 765.43,-238 765.43,-238 943.43,-238 943.43,-238 949.43,-238 955.43,-244 955.43,-250 955.43,-250 955.43,-262 955.43,-262 955.43,-268 949.43,-274 943.43,-274"/>
<text text-anchor="middle" x="854.43" y="-252.3" font-family="Helvetica,sans-Serif" font-size="14.00">Circulação entero&#45;hepática</text>
</g>
<!-- Alternativa&#45;&gt;Circulacao -->
<g id="edge10" class="edge">
<title>Alternativa&#45;&gt;Circulacao</title>
<path fill="none" stroke="black" d="M717.57,-256C726.03,-256 734.64,-256 743.23,-256"/>
<polygon fill="black" stroke="black" points="743.28,-259.5 753.28,-256 743.28,-252.5 743.28,-259.5"/>
</g>
<!-- Fecal -->
<g id="node11" class="node">
<title>Fecal</title>
<path fill="none" stroke="black" d="M675.93,-191C675.93,-191 570.93,-191 570.93,-191 564.93,-191 558.93,-185 558.93,-179 558.93,-179 558.93,-167 558.93,-167 558.93,-161 564.93,-155 570.93,-155 570.93,-155 675.93,-155 675.93,-155 681.93,-155 687.93,-161 687.93,-167 687.93,-167 687.93,-179 687.93,-179 687.93,-185 681.93,-191 675.93,-191"/>
<text text-anchor="middle" x="623.43" y="-169.3" font-family="Helvetica,sans-Serif" font-size="14.00">Eliminação fecal</text>
</g>
<!-- ABCG&#45;&gt;Fecal -->
<g id="edge11" class="edge">
<title>ABCG&#45;&gt;Fecal</title>
<path fill="none" stroke="black" d="M464.03,-173C490.07,-173 521.16,-173 548.87,-173"/>
<polygon fill="black" stroke="black" points="548.91,-176.5 558.91,-173 548.91,-169.5 548.91,-176.5"/>
</g>
<!-- LpX -->
<g id="node13" class="node">
<title>LpX</title>
<path fill="none" stroke="black" d="M683.93,-52C683.93,-52 562.93,-52 562.93,-52 556.93,-52 550.93,-46 550.93,-40 550.93,-40 550.93,-28 550.93,-28 550.93,-22 556.93,-16 562.93,-16 562.93,-16 683.93,-16 683.93,-16 689.93,-16 695.93,-22 695.93,-28 695.93,-28 695.93,-40 695.93,-40 695.93,-46 689.93,-52 683.93,-52"/>
<text text-anchor="middle" x="623.43" y="-30.3" font-family="Helvetica,sans-Serif" font-size="14.00">LpX ↑ (sem ApoB)</text>
</g>
<!-- Colestase&#45;&gt;LpX -->
<g id="edge12" class="edge">
<title>Colestase&#45;&gt;LpX</title>
<path fill="none" stroke="black" d="M460.1,-75.33C484.69,-69.07 514.37,-61.52 541.58,-54.59"/>
<polygon fill="black" stroke="black" points="542.65,-57.92 551.48,-52.07 540.93,-51.14 542.65,-57.92"/>
</g>
<!-- Feedback -->
<g id="node14" class="node">
<title>Feedback</title>
<path fill="none" stroke="black" d="M697.93,-108C697.93,-108 548.93,-108 548.93,-108 542.93,-108 536.93,-102 536.93,-96 536.93,-96 536.93,-82 536.93,-82 536.93,-76 542.93,-70 548.93,-70 548.93,-70 697.93,-70 697.93,-70 703.93,-70 709.93,-76 709.93,-82 709.93,-82 709.93,-96 709.93,-96 709.93,-102 703.93,-108 697.93,-108"/>
<text text-anchor="middle" x="623.43" y="-92.8" font-family="Helvetica,sans-Serif" font-size="14.00">Feedback desregulado</text>
<text text-anchor="middle" x="623.43" y="-77.8" font-family="Helvetica,sans-Serif" font-size="14.00">↑ HMG&#45;CoA redutase</text>
</g>
<!-- Colestase&#45;&gt;Feedback -->
<g id="edge14" class="edge">
<title>Colestase&#45;&gt;Feedback</title>
<path fill="none" stroke="black" d="M460.1,-89C480.23,-89 503.78,-89 526.58,-89"/>
<polygon fill="black" stroke="black" points="526.65,-92.5 536.65,-89 526.65,-85.5 526.65,-92.5"/>
</g>
<!-- Hiper -->
<g id="node15" class="node">
<title>Hiper</title>
<path fill="none" stroke="black" d="M910.93,-81C910.93,-81 797.93,-81 797.93,-81 791.93,-81 785.93,-75 785.93,-69 785.93,-69 785.93,-55 785.93,-55 785.93,-49 791.93,-43 797.93,-43 797.93,-43 910.93,-43 910.93,-43 916.93,-43 922.93,-49 922.93,-55 922.93,-55 922.93,-69 922.93,-69 922.93,-75 916.93,-81 910.93,-81"/>
<text text-anchor="middle" x="854.43" y="-65.8" font-family="Helvetica,sans-Serif" font-size="14.00">↑ Colesterol total</text>
<text text-anchor="middle" x="854.43" y="-50.8" font-family="Helvetica,sans-Serif" font-size="14.00">(atípico, LpX)</text>
</g>
<!-- LpX&#45;&gt;Hiper -->
<g id="edge13" class="edge">
<title>LpX&#45;&gt;Hiper</title>
<path fill="none" stroke="black" d="M695.94,-42.74C721.2,-45.83 749.72,-49.32 775.48,-52.47"/>
<polygon fill="black" stroke="black" points="775.23,-55.96 785.58,-53.7 776.08,-49.02 775.23,-55.96"/>
</g>
<!-- Feedback&#45;&gt;Hiper -->
<g id="edge15" class="edge">
<title>Feedback&#45;&gt;Hiper</title>
<path fill="none" stroke="black" d="M710.03,-78.91C731.53,-76.37 754.5,-73.66 775.6,-71.18"/>
<polygon fill="black" stroke="black" points="776.28,-74.62 785.8,-69.97 775.46,-67.67 776.28,-74.62"/>
</g>
</g>
</svg>
